<?xml version="1.0" encoding="UTF-8"?>
<svg version="1.1" xmlns="http://www.w3.org/2000/svg" width="500" height="500">
<path d="M0 0 C0.66 0.33 1.32 0.66 2 1 C2 1.66 2 2.32 2 3 C2.70898438 3.2371875 3.41796875 3.474375 4.1484375 3.71875 C7.48191284 5.2165307 9.84139132 7.13815021 12.625 9.5 C15.37251375 11.81844996 18.00745988 14.00497325 21 16 C21 16.66 21 17.32 21 18 C21.66 18 22.32 18 23 18 C23 18.66 23 19.32 23 20 C23.66 20 24.32 20 25 20 C27.625 22.375 27.625 22.375 30 25 C30 25.66 30 26.32 30 27 C30.66 27 31.32 27 32 27 C32 27.66 32 28.32 32 29 C32.66 29 33.32 29 34 29 C34 29.66 34 30.32 34 31 C34.66 31 35.32 31 36 31 C37.74024835 33.10855488 39.34883589 35.21782831 40.9375 37.4375 C41.42259033 38.11055176 41.90768066 38.78360352 42.4074707 39.47705078 C61.55084311 66.28332722 74.42086214 94.84187286 78 128 C78.09063721 128.71873291 78.18127441 129.43746582 78.2746582 130.17797852 C82.40898768 163.83383306 74.61212676 200.55961981 58 230 C57.64679688 230.63486328 57.29359375 231.26972656 56.9296875 231.92382812 C49.48082969 245.20047937 40.47170937 256.94187491 30 268 C29.55382324 268.48404297 29.10764648 268.96808594 28.64794922 269.46679688 C-3.18584953 303.87116131 -47.87834437 320.47953582 -93.8515625 323.23046875 C-111.01014042 323.63716191 -128.57869414 320.84975367 -145 316 C-146.11036621 315.68506592 -146.11036621 315.68506592 -147.24316406 315.36376953 C-159.08251067 311.9884527 -170.01343948 307.5425158 -181 302 C-181 301.34 -181 300.68 -181 300 C-181.55558594 299.8865625 -182.11117187 299.773125 -182.68359375 299.65625 C-191.01640117 297.2955221 -197.92928943 291.7020386 -204.40625 286.18359375 C-207.37390654 283.68522025 -210.46541011 281.42212635 -213.63671875 279.19140625 C-214.08660156 278.79824219 -214.53648437 278.40507812 -215 278 C-215 277.34 -215 276.68 -215 276 C-215.58265625 275.7421875 -216.1653125 275.484375 -216.765625 275.21875 C-219.1802903 273.90165983 -220.81740177 272.44911616 -222.75 270.5 C-223.36359375 269.8915625 -223.9771875 269.283125 -224.609375 268.65625 C-226 267 -226 267 -226 265 C-226.60215332 264.73896484 -227.20430664 264.47792969 -227.82470703 264.20898438 C-230.15821675 262.91206629 -231.2231403 261.78183105 -232.8046875 259.65625 C-233.30274902 258.99189941 -233.80081055 258.32754883 -234.31396484 257.64306641 C-234.82910645 256.93585449 -235.34424805 256.22864258 -235.875 255.5 C-236.40947754 254.77603027 -236.94395508 254.05206055 -237.49462891 253.30615234 C-241.33699688 248.04650788 -244.79047871 242.66787802 -248 237 C-248.97896347 235.43737268 -249.9581375 233.87487726 -250.9375 232.3125 C-258.3292471 219.88355709 -263.06715868 206.86290015 -267 193 C-267.20254395 192.28634277 -267.40508789 191.57268555 -267.61376953 190.83740234 C-276.69271736 158.21305137 -275.40515449 122.89219127 -264 91 C-263.64421875 89.87335938 -263.2884375 88.74671875 -262.921875 87.5859375 C-256.74059771 68.65033455 -245.84629868 51.18276357 -233.5625 35.625 C-233.04187988 34.96338867 -232.52125977 34.30177734 -231.98486328 33.62011719 C-230.70593382 32.0388493 -229.35862078 30.51334671 -228 29 C-227.34 29 -226.68 29 -226 29 C-225.731875 28.401875 -225.46375 27.80375 -225.1875 27.1875 C-224.00082594 25.00152146 -222.90400887 23.58667406 -221 22 C-220.34 22 -219.68 22 -219 22 C-218.34 20.68 -217.68 19.36 -217 18 C-216.34 18 -215.68 18 -215 18 C-214.73896484 17.39784668 -214.47792969 16.79569336 -214.20898438 16.17529297 C-212.91206629 13.84178325 -211.78183105 12.7768597 -209.65625 11.1953125 C-208.99189941 10.69725098 -208.32754883 10.19918945 -207.64306641 9.68603516 C-206.93585449 9.17089355 -206.22864258 8.65575195 -205.5 8.125 C-204.77603027 7.59052246 -204.05206055 7.05604492 -203.30615234 6.50537109 C-198.04650788 2.66300312 -192.66787802 -0.79047871 -187 -4 C-185.43737268 -4.97896347 -183.87487726 -5.9581375 -182.3125 -6.9375 C-126.05889035 -40.39267468 -54.03722416 -34.67028302 0 0 Z " fill="#050505" transform="translate(347,103)"/>
<path d="M0 0 C15.84212064 13.77063978 28.06063641 33.1284289 30.08666992 54.38037109 C31.89625168 81.32663937 26.7665068 102.12275103 9 123 C-9.24261517 142.45671413 -33.94565984 150.54880096 -59.95532227 152.47460938 C-84.9318789 154.33563282 -104.80920681 164.87580507 -121.3984375 183.80859375 C-136.25645889 202.78835862 -139.11867787 224.25376815 -137.75 247.8125 C-137.06879751 253.37144869 -135.59986874 258.52455285 -133.75 263.8125 C-133.399375 264.86050781 -133.04875 265.90851563 -132.6875 266.98828125 C-124.91355039 287.79979218 -107.9942908 302.72551666 -88.75 312.8125 C-88.75 313.1425 -88.75 313.4725 -88.75 313.8125 C-118.38930523 311.88740296 -148.20991863 296.18599255 -169.5 275.94140625 C-171.82273227 273.67603514 -171.82273227 273.67603514 -174.875 271.375 C-179.41213126 267.33103518 -183.0071251 262.5846655 -186.75 257.8125 C-187.81734375 256.50345703 -187.81734375 256.50345703 -188.90625 255.16796875 C-216.12947003 220.69508687 -228.53208873 175.06386414 -224.4453125 131.56982422 C-219.9802894 96.0831419 -204.94151336 64.75673624 -181.75 37.8125 C-180.60144531 36.45125 -180.60144531 36.45125 -179.4296875 35.0625 C-175.22374278 30.18030535 -170.72024591 25.90672855 -165.75 21.8125 C-165.02425781 21.19890625 -164.29851562 20.5853125 -163.55078125 19.953125 C-120.20757989 -15.86770257 -48.6621011 -37.91035996 0 0 Z " fill="#FDFDFD" transform="translate(304.75,99.1875)"/>
<path d="M0 0 C6.57757419 4.97421158 9.90710533 11.14373424 11.4140625 19.21875 C11.93179236 26.73945739 8.92820121 34.37708143 4.23828125 40.1796875 C-1.28818752 45.40348962 -8.37285393 49.0705984 -16.0625 49.4375 C-25.46216778 48.39309247 -31.65232341 45.13636586 -38 38 C-42.27588833 31.48604339 -43.88022678 24.74117253 -43 17 C-40.12552419 6.96167514 -35.0801245 1.05161856 -26 -4 C-16.85701704 -7.0723384 -7.80147958 -5.32718017 0 0 Z " fill="#FCFCFC" transform="translate(266,313)"/>
<path d="M0 0 C6.3790729 3.72898186 10.75064379 8.70185105 13.02734375 15.77734375 C14.78586724 23.8142321 13.42983493 30.75627069 9.5 37.9375 C4.74517761 43.69333763 -1.75190675 48.3671983 -9.296875 49.2734375 C-17.73889747 49.38510446 -23.08697121 47.54519883 -30.25 43.3125 C-36.32299785 36.90211338 -38.95047243 28.58826327 -38.8359375 19.91796875 C-37.9387182 11.95775562 -33.59668228 6.38353661 -27.66015625 1.3125 C-19.69135411 -3.75986592 -8.4692119 -3.90097033 0 0 Z " fill="#040404" transform="translate(262.5,142.0625)"/>
<path d="M0 0 C0.66 0.33 1.32 0.66 2 1 C-0.85276137 3.93200474 -3.65079784 6.64315404 -7 9 C-5.44499019 5.18315774 -2.96404505 2.80804268 0 0 Z " fill="#181818" transform="translate(235,143)"/>
<path d="M0 0 C0.99 0.33 1.98 0.66 3 1 C-0.465 3.97 -0.465 3.97 -4 7 C-4 4 -4 4 -2 1.8125 C-1.34 1.214375 -0.68 0.61625 0 0 Z " fill="#7A7A7A" transform="translate(126,125)"/>
</svg>
